<svg height='300px' width='300px'  fill="#000000" xmlns="http://www.w3.org/2000/svg" xmlns:xlink="http://www.w3.org/1999/xlink" version="1.1" x="0px" y="0px" viewBox="0 0 512 512" style="enable-background:new 0 0 512 512;" xml:space="preserve">
<g>
	<path d="M210,110.3c21.8,0,39.6-17.8,39.6-39.6c0-21.8-17.8-39.6-39.6-39.6c-21.8,0-39.6,17.8-39.6,39.6
		C170.4,92.5,188.2,110.3,210,110.3z M210,42.1c15.8,0,28.6,12.8,28.6,28.6c0,15.8-12.8,28.6-28.6,28.6c-15.8,0-28.6-12.8-28.6-28.6
		C181.4,54.9,194.2,42.1,210,42.1z"/>
	<path d="M296.8,165h69.7c2.8,0,5.2-2.3,5.2-5.2c0-2.8-2.3-5.2-5.2-5.2h-51.2c1.1-1.7,2.1-3.5,2.9-5.6c4.4-11.3,20.6-8.4,20.8-8.4
		c1.5,0.3,2.9-0.1,4.1-1c1.1-0.9,1.9-2.3,2-3.7c0.7-8.6,4.5-14.5,11.3-17.6c4.7-2.1,10.4-2.4,16.1-0.6c15,4.5,17.9,18.6,18,19.2
		c0.3,1.6,1.4,3,2.8,3.7c1.5,0.7,3.2,0.7,4.6,0c0.4-0.2,0.7-0.4,1.1-0.5c7.2-3.3,15.9-0.5,19.9,6.4c1.8,3.2,4,5.9,6.4,8.2h-26.9
		c-2.8,0-5.2,2.3-5.2,5.2c0,2.8,2.3,5.2,5.2,5.2h43.3c2.4,0,4.5-1.7,5.3-4.1c0.5-2.4-0.7-4.8-3-5.8c-0.1,0-10.7-4.9-15.8-13.8
		c-5.9-10.3-18.1-15.1-29.1-12.2c-2.7-6.6-9.1-17.1-23.2-21.4c-8-2.5-16.3-2.1-23.4,1.1c-6.4,2.9-14,8.8-16.6,21
		c-9.3-0.2-22.1,2.7-27,15.3c-0.9,2.4-2.7,5.6-5.8,7.6c-2,1.3-4,1.9-6,1.9c-2.8,0-5.2,2.3-5.2,5.2C291.6,162.6,293.9,165,296.8,165z
		"/>
	<path d="M277.9,165h1.3c2.8,0,5.2-2.4,5.2-5.2c0-2.8-2.3-5.2-5.2-5.2h-1.3c-2.8,0-5.2,2.3-5.2,5.2C272.7,162.6,275,165,277.9,165z"
		/>
	<path d="M39.4,155.8h28.3h46c3,0,5.4-2.5,5.4-5.4c0-3-2.5-5.4-5.4-5.4h-32c1.4-2.5,2.5-4.7,3-6c2.7-6,11.1-4,11.5-3.9
		c1.6,0.4,3.3,0,4.6-0.9c1.3-1,2.1-2.7,2.1-4.3c0-18.1,15.1-19.6,17.2-19.7c19.2,0.1,20.6,18.6,20.7,20.8c0.1,2.9,2.5,5.3,5.4,5.3
		c9.7,0,15,4.6,17.8,8.9h-19.5c-3,0-5.4,2.5-5.4,5.4c0,3,2.5,5.4,5.4,5.4h27.8c1.6,0,3.2-0.8,4.2-2c0.9-1.2,1.4-2.9,1.1-4.5
		c-1.6-7.7-9.1-21.6-26.4-23.8c-2.1-11.1-10.1-26.2-31.1-26.2c-0.1,0-0.1,0-0.2,0c-8.7,0.3-24.4,6-27.3,24.6
		c-6.3,0.1-14,2.5-17.7,10.8c-2,4.6-5.4,9.7-7.1,10.3L39.4,145c-3,0-5.4,2.5-5.4,5.4C34,153.4,36.4,155.8,39.4,155.8z"/>
	<path d="M490.5,303h-28.1v-21.7c11.2-2.5,19.7-12.6,19.7-24.5c0-8.8-4.6-16.6-11.4-21.1c6.9-4.5,11.4-12.3,11.4-21.1
		c0-13.9-11.3-25.2-25.2-25.2s-25.2,11.3-25.2,25.2c0,8.8,4.6,16.6,11.4,21.1c-6.9,4.5-11.4,12.3-11.4,21.1c0,12,8.4,22,19.7,24.5
		V303h-48.8v-16.3c9.1-2.4,15.9-11.2,15.9-21.7c0-5.2-0.6-51-20.9-51c-4.1,0-10,2-14.3,11.4c-1.3,2.8,0,6,2.7,7.3
		c2.8,1.3,6,0,7.3-2.7c1.4-3.1,3-5,4.3-5c1.6,0,4.9,4,7.2,14.9c2.1,9.7,2.7,20.6,2.7,25.1c0,6.3-4.4,11.4-9.9,11.4
		s-9.9-5.1-9.9-11.4c0-3,0.2-8.1,0.8-13.7c0.3-3-1.9-5.7-4.9-6.1c-3-0.3-5.7,1.9-6.1,4.9c-0.6,6-0.9,11.6-0.9,14.9
		c0,10.1,6.3,18.7,14.9,21.4V303H281.3v-33.6c0-3-2.5-5.5-5.5-5.5h-28c-3,0-5.5,2.5-5.5,5.5v17.8c0,3,2.5,5.5,5.5,5.5
		s5.5-2.5,5.5-5.5v-12.3h17V303h-43.8v-53.8h29.2c3,0,5.5-2.5,5.5-5.5s-2.5-5.5-5.5-5.5h-24.8l12-15.4c1.9-2.4,4.9-3.9,8-3.9h73.4
		c3.1,0,6.1,1.5,8,3.9l12,15.4h-59.8c-3,0-5.5,2.5-5.5,5.5s2.5,5.5,5.5,5.5h64.2v33.2c0,3,2.5,5.5,5.5,5.5s5.5-2.5,5.5-5.5v-38.7
		c0-0.3,0-0.6-0.1-0.9c0.2-1.4-0.1-3-1.1-4.2l-17.5-22.6c-4-5.1-10.2-8.2-16.7-8.2h-5.5V200c0-3-2.5-5.5-5.5-5.5s-5.5,2.5-5.5,5.5
		v7.9h-56.9c-6.5,0-12.7,3.1-16.7,8.2l-17.5,22.6c-1,1.2-1.3,2.8-1.1,4.2c0,0.3-0.1,0.6-0.1,0.9V303H199v-38.5c0-3-2.5-5.5-5.5-5.5
		s-5.5,2.5-5.5,5.5v4.5h-15.2v-4.5c0-3-2.5-5.5-5.5-5.5s-5.5,2.5-5.5,5.5v4.5h-15.2v-4.5c0-3-2.5-5.5-5.5-5.5s-5.5,2.5-5.5,5.5v4.5
		h-15.2v-4.5c0-3-2.5-5.5-5.5-5.5s-5.5,2.5-5.5,5.5v4.5H94.3v-4.5c0-3-2.5-5.5-5.5-5.5s-5.5,2.5-5.5,5.5v4.5H68.2v-4.5
		c0-3-2.5-5.5-5.5-5.5s-5.5,2.5-5.5,5.5v4.5H42v-4.5c0-3-2.5-5.5-5.5-5.5s-5.5,2.5-5.5,5.5V303h-4.5c-3,0-5.5,2.5-5.5,5.5
		s2.5,5.5,5.5,5.5h148.1l-6.5,17.6c-1.1,2.8,0.4,6,3.3,7.1c0.6,0.2,1.3,0.3,1.9,0.3c2.2,0,4.3-1.4,5.2-3.6l7.9-21.4h94.3l-4,60.1
		c-0.2,3,2.1,5.7,5.1,5.9c0.1,0,0.2,0,0.4,0c2.9,0,5.3-2.2,5.5-5.1l4.1-60.9h45.2l18.8,109.4c0.5,2.7,2.8,4.6,5.4,4.6
		c0.3,0,0.6,0,0.9-0.1c3-0.5,5-3.4,4.5-6.4L348,314h142.5c3,0,5.5-2.5,5.5-5.5S493.5,303,490.5,303z M456.9,200.5
		c7.8,0,14.2,6.4,14.2,14.2s-6.4,14.2-14.2,14.2s-14.2-6.4-14.2-14.2S449.1,200.5,456.9,200.5z M442.7,256.8
		c0-7.8,6.4-14.2,14.2-14.2s14.2,6.4,14.2,14.2c0,7.8-6.4,14.2-14.2,14.2S442.7,264.6,442.7,256.8z M188,280v23h-15.2v-23H188z
		 M135.7,280v7.5c0,3,2.5,5.5,5.5,5.5s5.5-2.5,5.5-5.5V280h15.2v23h-41.3v-23H135.7z M109.5,280v23H94.3v-23H109.5z M83.3,280v23
		H68.2v-23H83.3z M42,280h15.2v23H42V280z"/>
	<path d="M165.4,354.9c-2.9-1-6,0.4-7.1,3.3l-47,127.4c-1.1,2.8,0.4,6,3.3,7.1c0.6,0.2,1.3,0.3,1.9,0.3c2.2,0,4.3-1.4,5.2-3.6
		l47-127.4C169.7,359.1,168.2,356,165.4,354.9z"/>
	<path d="M145,348.8c0-3-2.5-5.5-5.5-5.5h-106c-3,0-5.5,2.5-5.5,5.5s2.5,5.5,5.5,5.5h106C142.5,354.2,145,351.8,145,348.8z"/>
	<path d="M81.8,393c0-3-2.5-5.5-5.5-5.5H43.5c-3,0-5.5,2.5-5.5,5.5s2.5,5.5,5.5,5.5h32.8C79.4,398.5,81.8,396,81.8,393z"/>
	<path d="M105.5,387.5c-3,0-5.5,2.5-5.5,5.5s2.5,5.5,5.5,5.5h18c3,0,5.5-2.5,5.5-5.5s-2.5-5.5-5.5-5.5H105.5z"/>
	<path d="M105.5,431.8h-53c-3,0-5.5,2.5-5.5,5.5s2.5,5.5,5.5,5.5h53c3,0,5.5-2.5,5.5-5.5S108.5,431.8,105.5,431.8z"/>
	<path d="M277.8,438.8c-3-0.2-5.7,2.1-5.9,5.1l-2.9,44.2c-0.2,3,2.1,5.7,5.1,5.9c0.1,0,0.2,0,0.4,0c2.9,0,5.3-2.2,5.5-5.1l2.9-44.2
		C283.1,441.6,280.8,439,277.8,438.8z"/>
	<path d="M280.4,399.5c-3-0.2-5.7,2.1-5.9,5.1l-1,14.9c-0.2,3,2.1,5.7,5.1,5.9c0.1,0,0.2,0,0.4,0c2.9,0,5.3-2.2,5.5-5.1l1-14.9
		C285.8,402.3,283.5,399.7,280.4,399.5z"/>
	<path d="M371,447.3c-0.5-3-3.4-5-6.4-4.5c-3,0.5-5,3.4-4.5,6.4l6.9,40.3c0.5,2.7,2.8,4.6,5.4,4.6c0.3,0,0.6,0,0.9-0.1
		c3-0.5,5-3.4,4.5-6.4L371,447.3z"/>
	<path d="M485.5,343.2h-49c-3,0-5.5,2.5-5.5,5.5s2.5,5.5,5.5,5.5h49c3,0,5.5-2.5,5.5-5.5S488.5,343.2,485.5,343.2z"/>
	<path d="M402.5,354.2c3,0,5.5-2.5,5.5-5.5s-2.5-5.5-5.5-5.5h-31c-3,0-5.5,2.5-5.5,5.5s2.5,5.5,5.5,5.5H402.5z"/>
	<path d="M470.5,388h-90c-3,0-5.5,2.5-5.5,5.5s2.5,5.5,5.5,5.5h90c3,0,5.5-2.5,5.5-5.5S473.5,388,470.5,388z"/>
	<path d="M459.5,431.8h-69c-3,0-5.5,2.5-5.5,5.5s2.5,5.5,5.5,5.5h69c3,0,5.5-2.5,5.5-5.5S462.5,431.8,459.5,431.8z"/>
	<path d="M253.8,351.3c-0.5-0.2-13.5-4.6-23.9,1.9c-1.1,0.7-2,1.4-3,2.2c-1.9-5.8-5.2-10.2-9.8-13.1c-10.4-6.5-23.4-2.1-23.9-1.9
		c-2.3,0.8-3.8,3.1-3.7,5.6c0,0.6,1.2,14.6,11.5,21.4c3.6,2.4,7.7,3.5,12.3,3.5c1.5,0,3-0.1,4.6-0.4v16.2c0,3,2.5,5.5,5.5,5.5
		s5.5-2.5,5.5-5.5v-5.4c1.6,0.3,3.2,0.4,4.8,0.4c4.6,0,8.7-1.2,12.3-3.5c10.3-6.8,11.5-20.8,11.5-21.4
		C257.7,354.4,256.2,352.1,253.8,351.3z M207.1,358.3c-2.9-1.9-4.7-5.4-5.6-8.4c2.9-0.3,6.8-0.2,9.9,1.8c2.5,1.6,4.3,4.2,5.4,8
		C212.8,360.4,209.6,359.9,207.1,358.3z M239.9,369.2c-2.5,1.6-5.7,2.1-9.6,1.4c1.1-3.7,2.9-6.4,5.4-8c3.1-1.9,6.9-2.1,9.9-1.8
		C244.6,363.8,242.8,367.3,239.9,369.2z"/>
	<path d="M243.8,421.9c-0.6-0.2-15.8-5.4-28,2.2c-1.8,1.1-3.3,2.4-4.8,3.9c-2.2-7.7-6.1-13.4-11.9-17c-12.2-7.6-27.3-2.4-28-2.2
		c-2.3,0.8-3.8,3.1-3.7,5.6c0.1,0.7,1.4,17.1,13.4,25c4.1,2.7,8.9,4.1,14.2,4.1c2.2,0,4.5-0.2,6.9-0.7c-0.1,0.4-0.2,0.9-0.2,1.4
		v19.7c0,3,2.5,5.5,5.5,5.5s5.5-2.5,5.5-5.5v-8c2.4,0.5,4.7,0.7,6.9,0.7c5.3,0,10.1-1.4,14.2-4.1c12-7.9,13.4-24.3,13.4-25
		C247.7,425,246.2,422.7,243.8,421.9z M187,430.3c-4.5-2.9-6.6-8.2-7.7-12.1c3.9-0.6,9.5-0.7,14,2.1c3.6,2.2,6,6.1,7.4,11.6
		C195.1,433.1,190.5,432.5,187,430.3z M228,443.4c-3.5,2.3-8.1,2.8-13.7,1.6c1.3-5.4,3.8-9.3,7.4-11.5c4.5-2.8,10.2-2.7,14-2.2
		C234.6,435.1,232.4,440.4,228,443.4z"/>
	<path d="M311.4,363.3c0.5,0.4,1.1,0.7,1.7,0.9c0.6,0.2,1.2,0.5,1.9,0.6c0.6,0.1,1.3,0.2,2,0.2c0.6,0,1.3-0.1,1.9-0.2
		c0.6-0.1,1.3-0.3,1.9-0.6c0.6-0.2,1.2-0.6,1.7-0.9c0.5-0.4,1.1-0.8,1.5-1.2c0.5-0.5,0.9-1,1.2-1.5c0.4-0.5,0.7-1.1,0.9-1.7
		c0.2-0.6,0.4-1.2,0.6-1.9c0.1-0.6,0.2-1.3,0.2-2c0-0.7-0.1-1.3-0.2-2c-0.1-0.6-0.3-1.3-0.6-1.9c-0.2-0.6-0.6-1.2-0.9-1.7
		c-0.4-0.6-0.8-1.1-1.2-1.5s-1-0.9-1.5-1.2c-0.5-0.4-1.1-0.7-1.7-0.9c-0.6-0.2-1.2-0.5-1.9-0.6c-1.3-0.3-2.6-0.3-3.9,0
		c-0.6,0.1-1.3,0.3-1.9,0.6c-0.6,0.2-1.2,0.6-1.7,0.9c-0.5,0.4-1.1,0.8-1.5,1.2s-0.9,1-1.2,1.5c-0.4,0.5-0.7,1.1-0.9,1.7
		c-0.2,0.6-0.5,1.2-0.6,1.9c-0.1,0.6-0.2,1.3-0.2,2c0,0.6,0.1,1.3,0.2,2c0.1,0.6,0.3,1.3,0.6,1.9c0.2,0.6,0.6,1.2,0.9,1.7
		c0.4,0.5,0.8,1.1,1.2,1.5C310.4,362.5,310.9,363,311.4,363.3z"/>
	<path d="M321.7,443c0.2,0,0.4,0,0.6,0c5.5-0.3,9.7-5.1,9.4-10.6c-0.3-5.5-5.1-9.7-10.6-9.4s-9.7,5.1-9.4,10.6
		C312,438.9,316.4,443,321.7,443z"/>
	<path d="M319.3,404c0.2,0,0.4,0,0.6,0c5.5-0.3,9.7-5.1,9.4-10.6c-0.3-5.5-5.1-9.7-10.6-9.4c-5.5,0.3-9.7,5.1-9.4,10.6
		C309.7,399.9,314.1,404,319.3,404z"/>
	<path d="M333.2,468.2c-0.2-0.6-0.6-1.2-0.9-1.7c-0.4-0.6-0.8-1.1-1.2-1.5s-1-0.9-1.5-1.2c-0.5-0.4-1.1-0.7-1.7-0.9
		c-0.6-0.2-1.2-0.5-1.9-0.6c-1.3-0.2-2.6-0.2-3.9,0c-0.6,0.1-1.3,0.3-1.9,0.6c-0.6,0.2-1.2,0.5-1.7,0.9c-0.5,0.4-1.1,0.8-1.5,1.2
		s-0.9,1-1.2,1.5c-0.4,0.5-0.7,1.1-0.9,1.7c-0.2,0.6-0.5,1.2-0.6,1.9c-0.1,0.6-0.2,1.3-0.2,2c0,0.6,0.1,1.3,0.2,2
		c0.1,0.6,0.3,1.3,0.6,1.9c0.2,0.6,0.6,1.2,0.9,1.7c0.4,0.5,0.8,1.1,1.2,1.5c0.5,0.5,1,0.9,1.5,1.2c0.5,0.4,1.1,0.7,1.7,0.9
		c0.6,0.2,1.2,0.5,1.9,0.6s1.3,0.2,2,0.2c0.6,0,1.3-0.1,1.9-0.2c0.6-0.1,1.3-0.3,1.9-0.6c0.6-0.2,1.2-0.6,1.7-0.9
		c0.5-0.4,1.1-0.8,1.5-1.2c0.5-0.5,0.9-1,1.2-1.5c0.4-0.5,0.7-1.1,0.9-1.7c0.2-0.6,0.4-1.2,0.6-1.9c0.1-0.6,0.2-1.3,0.2-2
		c0-0.7-0.1-1.3-0.2-2C333.7,469.4,333.5,468.8,333.2,468.2z"/>
	<path d="M313.2,263.9c-3,0-5.5,2.5-5.5,5.5s2.5,5.5,5.5,5.5H326c3,0,5.5-2.5,5.5-5.5s-2.5-5.5-5.5-5.5H313.2z"/>
</g>
</svg>