<svg height='300px' width='300px'  fill="#000000" xmlns="http://www.w3.org/2000/svg" xmlns:xlink="http://www.w3.org/1999/xlink" version="1.1" x="0px" y="0px" viewBox="0 0 512 512" style="enable-background:new 0 0 512 512;" xml:space="preserve"><path d="M27.1,442.7h62.7c3.2,0,5.7-2.6,5.7-5.7c0-3.2-2.6-5.7-5.7-5.7H27.1c-3.2,0-5.7,2.6-5.7,5.7  C21.3,440.1,23.9,442.7,27.1,442.7z"></path><path d="M372.5,436.9c0-3.2-2.6-5.7-5.7-5.7H130c-3.2,0-5.7,2.6-5.7,5.7c0,3.2,2.6,5.7,5.7,5.7h236.8  C370,442.7,372.5,440.1,372.5,436.9z"></path><path d="M484.9,431.2h-72.6c-3.2,0-5.7,2.6-5.7,5.7c0,3.2,2.6,5.7,5.7,5.7h72.6c3.2,0,5.7-2.6,5.7-5.7  C490.7,433.8,488.1,431.2,484.9,431.2z"></path><path d="M396.9,329.4c0,3.2,2.6,5.7,5.7,5.7h82.3c3.2,0,5.7-2.6,5.7-5.7c0-3.2-2.6-5.7-5.7-5.7h-82.3  C399.4,323.6,396.9,326.2,396.9,329.4z"></path><path d="M271.9,335.1H362c3.2,0,5.7-2.6,5.7-5.7c0-3.2-2.6-5.7-5.7-5.7h-90.1c-3.2,0-5.7,2.6-5.7,5.7  C266.2,332.5,268.7,335.1,271.9,335.1z"></path><path d="M27.1,335.1h55.1c3.2,0,5.7-2.6,5.7-5.7c0-3.2-2.6-5.7-5.7-5.7H57c8.9-10.3,22.2-27.8,30.3-47.9c2-5,6.7-8.3,12-8.3h4.7  c4,0,7.7,1.8,10.2,4.9c4.4,5.6,8.8,10.7,13.2,15.2l19,23.3c1.1,1.4,2.8,2.1,4.4,2.1c1.3,0,2.6-0.4,3.6-1.3c2.5-2,2.8-5.6,0.8-8.1  l-4.2-5.1c0.6,0,1.2,0,1.8,0h1.2c7.9,0,15.2,3.9,19.5,10.4c3.7,5.6,7.5,10.5,11.3,14.7H116c-3.2,0-5.7,2.6-5.7,5.7  c0,3.2,2.6,5.7,5.7,5.7h116.7c3.2,0,5.7-2.6,5.7-5.7c0-3.2-2.6-5.7-5.7-5.7h-31.4c-7.4-6-14-14.6-18.3-21.1  c-6.5-9.7-17.4-15.5-29-15.5h-1.2c-6.4,0-12.5-2.6-17-7.2c-5.2-5.4-9.7-10.9-12.6-14.6c-4.6-5.9-11.7-9.3-19.2-9.3h-4.7  c-10,0-18.9,6.1-22.6,15.4c-10.1,25.1-29.5,46.4-35.2,52.2H27.1c-3.2,0-5.7,2.6-5.7,5.7C21.3,332.5,23.9,335.1,27.1,335.1z"></path><path d="M484.9,369h-137c-3.2,0-5.7,2.6-5.7,5.7c0,3.2,2.6,5.7,5.7,5.7h137c3.2,0,5.7-2.6,5.7-5.7C490.7,371.6,488.1,369,484.9,369z  "></path><path d="M319.1,380.5c3.2,0,5.7-2.6,5.7-5.7c0-3.2-2.6-5.7-5.7-5.7H314c-3.2,0-5.7,2.6-5.7,5.7c0,3.2,2.6,5.7,5.7,5.7H319.1z"></path><path d="M282.6,380.5c3.2,0,5.7-2.6,5.7-5.7c0-3.2-2.6-5.7-5.7-5.7H174.4c-3.2,0-5.7,2.6-5.7,5.7c0,3.2,2.6,5.7,5.7,5.7H282.6z"></path><path d="M27.1,380.5h116c3.2,0,5.7-2.6,5.7-5.7c0-3.2-2.6-5.7-5.7-5.7h-116c-3.2,0-5.7,2.6-5.7,5.7  C21.3,377.9,23.9,380.5,27.1,380.5z"></path><path d="M290.9,201.8h47.7c3.2,0,5.7-2.6,5.7-5.7c0-3.2-2.6-5.7-5.7-5.7h-29.7c2.6-2.5,5-5.5,7-9c4.4-7.6,14-10.7,21.9-7.1  c0.4,0.2,0.8,0.4,1.2,0.6c1.6,0.8,3.5,0.8,5.1,0c1.6-0.8,2.8-2.3,3.1-4.1c0.1-0.7,3.3-16.2,19.8-21.2c6.2-1.9,12.5-1.6,17.7,0.7  c7.5,3.4,11.7,9.9,12.5,19.4c0.1,1.6,1,3.1,2.2,4.1c1.3,1,2.9,1.4,4.5,1.1c0.2,0,18.1-3.1,22.9,9.3c0.9,2.3,2,4.3,3.2,6.2h-56.4  c-3.2,0-5.7,2.6-5.7,5.7c0,3.2,2.6,5.7,5.7,5.7h76.8c3.2,0,5.7-2.6,5.7-5.7c0-3.2-2.6-5.7-5.7-5.7c-2.2,0-4.4-0.7-6.6-2.1  c-3.4-2.2-5.4-5.8-6.4-8.4c-5.4-13.9-19.6-17.1-29.8-16.9c-2.9-13.4-11.3-19.9-18.3-23.1c-7.8-3.5-17-4-25.8-1.2  c-15.6,4.8-22.6,16.3-25.6,23.6c-12.2-3.2-25.6,2.1-32.1,13.4c-5.6,9.8-17.3,15.2-17.4,15.2c-2.5,1.1-3.8,3.8-3.3,6.4  C285.9,199.9,288.2,201.8,290.9,201.8z"></path><path d="M469.9,201.8h1.4c3.2,0,5.7-2.6,5.7-5.7c0-3.2-2.6-5.7-5.7-5.7h-1.4c-3.2,0-5.7,2.6-5.7,5.7  C464.2,199.2,466.8,201.8,469.9,201.8z"></path><path d="M39.6,134.3h47.7c3.2,0,5.7-2.6,5.7-5.7s-2.6-5.7-5.7-5.7H57.5c2.6-2.5,5-5.5,7-9c4.4-7.6,14-10.7,21.9-7.1  c0.4,0.2,0.8,0.4,1.3,0.6c1.6,0.8,3.5,0.8,5.1,0c1.6-0.8,2.8-2.3,3.1-4.1c0.1-0.7,3.3-16.2,19.8-21.2c6.2-1.9,12.5-1.6,17.7,0.7  c7.5,3.4,11.7,9.9,12.5,19.4c0.1,1.6,1,3.1,2.2,4.1c1.3,1,2.9,1.4,4.5,1.1c0.2,0,18.1-3.1,22.9,9.3c0.9,2.3,2,4.3,3.2,6.2h-56.4  c-3.2,0-5.7,2.6-5.7,5.7s2.6,5.7,5.7,5.7h76.8c3.2,0,5.7-2.6,5.7-5.7s-2.6-5.7-5.7-5.7c-2.2,0-4.4-0.7-6.6-2.1  c-3.4-2.2-5.4-5.8-6.4-8.4c-5.4-13.9-19.6-17.2-29.8-16.9c-2.9-13.4-11.3-19.9-18.3-23.1c-7.8-3.5-17-4-25.8-1.2  c-15.6,4.8-22.6,16.3-25.6,23.6c-12.2-3.2-25.6,2.1-32.1,13.4c-5.6,9.8-17.3,15.2-17.4,15.2c-2.5,1.1-3.8,3.8-3.3,6.4  C34.5,132.4,36.9,134.3,39.6,134.3z"></path><path d="M218.6,134.3h1.4c3.2,0,5.7-2.6,5.7-5.7s-2.6-5.7-5.7-5.7h-1.4c-3.2,0-5.7,2.6-5.7,5.7S215.4,134.3,218.6,134.3z"></path></svg>