<svg height='300px' width='300px'  fill="#000000" xmlns="http://www.w3.org/2000/svg" xmlns:xlink="http://www.w3.org/1999/xlink" version="1.1" x="0px" y="0px" viewBox="0 0 512 512" style="enable-background:new 0 0 512 512;" xml:space="preserve"><g>
	<path d="M203.9,278.2c17.9,4.6,35.4,11,52.2,19.1c32.4,15.6,83.1,38.3,130.5,51.8H152.8c-3.2,0-5.7,2.6-5.7,5.7
		c0,3.2,2.6,5.7,5.7,5.7H454c3.2,0,5.7-2.6,5.7-5.7c0-3.2-2.6-5.7-5.7-5.7c-55.9,0-144.9-38.9-192.9-62.2
		c-7.1-3.4-14.3-6.6-21.7-9.4c8.1-2.4,17-4.8,21.4-5.8c36.4-8.3,75.5-8.6,113-0.9c2.8,0.6,5.5,1.2,8.3,1.8c3.1,0.7,6.2-1.3,6.8-4.3
		c0.7-3.1-1.3-6.2-4.3-6.8c-2.8-0.6-5.6-1.2-8.5-1.8c-39.1-8-79.8-7.7-117.9,0.9c-2.8,0.7-25.6,6.3-36.2,10.9
		c-5.1-1.6-10.2-3.1-15.3-4.4c-3.1-0.8-6.2,1.1-7,4.1C199,274.3,200.8,277.4,203.9,278.2z"/>
	<path d="M305.9,118.6c0,20.4,16.6,37,37,37c20.4,0,37-16.6,37-37c0-20.4-16.6-37-37-37C322.5,81.6,305.9,98.2,305.9,118.6z
		 M368.4,118.6c0,14.1-11.5,25.5-25.5,25.5c-14.1,0-25.5-11.5-25.5-25.5s11.5-25.5,25.5-25.5C357,93.1,368.4,104.6,368.4,118.6z"/>
	<path d="M347.8,173.6c-3.2,0.3-5.5,3.1-5.2,6.2c0.3,3,2.8,5.2,5.7,5.2c0.2,0,0.3,0,0.5,0c34.6-3.1,60.6-31.6,60.6-66.3
		c0-14.4-4.5-28.1-13.1-39.6c-1.9-2.5-5.5-3.1-8-1.2c-2.5,1.9-3.1,5.5-1.2,8c7.1,9.5,10.8,20.9,10.8,32.8
		C398,147.4,376.4,171,347.8,173.6z"/>
	<path d="M297.2,149.5c-1.8-2.6-5.3-3.3-8-1.5c-2.6,1.8-3.3,5.3-1.5,8c4.8,7.1,10.8,13.1,17.9,17.9c1,0.7,2.1,1,3.2,1
		c1.8,0,3.6-0.9,4.8-2.5c1.8-2.6,1.1-6.2-1.5-8C306.2,160.4,301.2,155.4,297.2,149.5z"/>
	<path d="M282,126.7c0.1,0,0.1,0,0.2,0c3.2-0.1,5.6-2.8,5.5-5.9c0-0.7,0-1.4,0-2.1c0-30.4,24.7-55.1,55.1-55.1c3.5,0,6.9,0.3,10.3,1
		c3.1,0.6,6.1-1.5,6.7-4.6c0.6-3.1-1.5-6.1-4.6-6.7c-4.1-0.8-8.2-1.2-12.4-1.2c-36.7,0-66.6,29.9-66.6,66.6c0,0.9,0,1.7,0,2.5
		C276.4,124.3,279,126.7,282,126.7z"/>
	<path d="M484.9,448.5h-44.7c-3.2,0-5.7,2.6-5.7,5.7c0,3.2,2.6,5.7,5.7,5.7h44.7c3.2,0,5.7-2.6,5.7-5.7
		C490.7,451.1,488.1,448.5,484.9,448.5z"/>
	<path d="M226.8,448.5h-30.3c0.7-8.3,4-24.7,17.4-37.8c2.3-2.2,2.3-5.8,0.1-8.1c-2.2-2.3-5.8-2.3-8.1-0.1
		c-16.6,16.2-20.2,36.2-20.9,46h-5.3c-3.2-20.7-23-29.5-23.9-29.9c-2.9-1.3-6.3,0.1-7.5,3c-1.3,2.9,0.1,6.3,3,7.5
		c0.2,0.1,13.6,6,16.8,19.4H78.8c-3.1,0-5.7,2.6-5.7,5.7c0,3.2,2.6,5.7,5.7,5.7h148c3.2,0,5.7-2.6,5.7-5.7
		C232.5,451,229.9,448.5,226.8,448.5z"/>
	<path d="M401.9,448.6H358c0-1,0.1-2,0.2-3.2c0.8-2.4,5-12.2,17.6-13.1c3.2-0.2,5.5-3,5.3-6.1c-0.2-3.2-3-5.5-6.1-5.3
		c-4.9,0.4-9.1,1.6-12.5,3.3c2.7-7.4,6.8-15,13.4-21.2c2.3-2.2,2.4-5.8,0.3-8.1c-2.2-2.3-5.8-2.4-8.1-0.3
		c-18.4,17.2-21.2,42.4-21.5,53.9H343c-5.3-24.7-29.9-32.9-31-33.3c-3-1-6.2,0.7-7.2,3.7s0.6,6.2,3.6,7.2
		c0.8,0.3,17.7,6.1,22.7,22.4h-59.8c-3.2,0-5.7,2.6-5.7,5.7c0,3.2,2.6,5.7,5.7,5.7l66.8,0.1h63.8c3.2,0,5.7-2.6,5.7-5.7
		C407.6,451.1,405,448.6,401.9,448.6z"/>
	<path d="M44.5,448.6H27.1c-3.2,0-5.7,2.6-5.7,5.7c-0.1,3.1,2.5,5.7,5.7,5.7h17.4c3.2,0,5.7-2.6,5.7-5.7
		C50.2,451.1,47.6,448.6,44.5,448.6z"/>
	<path d="M138.8,401.5c3.2,0,5.7-2.6,5.7-5.7c0-3.1-2.6-5.7-5.7-5.7h-9.6v-64.4H150c16.6,0,30.1-12.5,30.1-27.8v-27.8
		c0-4.6-1.9-8.8-5.3-12.1c-3.7-3.5-8.9-5.3-14.2-5c-9.6,0.6-17.2,8.3-17.2,17.5v17.9c0,1.6-1.8,3-3.9,3h-16.1
		c-3.1,0.2-5.6,2.7-5.6,5.9s2.6,5.7,5.7,5.7h16.1c8.5,0,15.4-6.5,15.4-14.4v-17.9c0-3.1,2.9-5.8,6.4-6.1c2.2-0.1,4.2,0.6,5.7,1.9
		c1.1,1,1.7,2.4,1.7,3.7V298c0,9-8.4,16.3-18.6,16.3h-26.6c-3.2,0-5.7,2.6-5.7,5.7v70.1h-11.3v-27.6c0-3.2-2.6-5.7-5.7-5.7
		c-3.2,0-5.7,2.6-5.7,5.7v27.6H60.3c-3.2,0-5.7,2.6-5.7,5.7c0,3.1,2.6,5.7,5.7,5.7h63.2H138.8z"/>
	<path d="M95.1,229.1V337c-0.1,3.1,2.5,5.7,5.7,5.7s5.7-2.6,5.7-5.7V229.1c0-3.2-2.6-5.7-5.7-5.7C97.6,223.4,95.1,226,95.1,229.1z"
		/>
	<path d="M35.8,360.5h36v15.9c0,3.2,2.6,5.7,5.7,5.7c3.2,0,5.7-2.6,5.7-5.7v-90c0-3.2-2.6-5.7-5.7-5.7H51.4
		c-10.3,0-18.6-7.3-18.6-16.3v-27.8c0-1.4,0.6-2.7,1.7-3.7c1.4-1.4,3.5-2.1,5.7-1.9c3.5,0.2,6.4,2.9,6.4,6.1V255
		c0,8,6.9,14.4,15.4,14.4h15.6c3.2,0,5.7-2.6,5.7-5.7v-59.9c0-8.3,7.7-15,17.2-15s17.2,6.8,17.2,15v73.7c0,3.2,2.6,5.7,5.7,5.7
		c3.1,0,5.7-2.6,5.7-5.7v-73.7c0-14.6-12.9-26.5-28.7-26.5c-15.8,0-28.7,11.9-28.7,26.5V258h-9.9c-2.1,0-3.9-1.4-3.9-3v-17.9
		c0-9.3-7.5-16.9-17.2-17.5c-5.3-0.3-10.5,1.5-14.2,5c-3.4,3.2-5.3,7.5-5.3,12.1v27.8c0,15.3,13.5,27.8,30.1,27.8h20.4v56.9H35.8
		c0,0,0,0,0,0h-8.7v-0.1c-0.4,0-0.7,0-1,0.1H7.5c-3.1,0-5.6,2.5-5.6,5.7s2.5,5.7,5.6,5.7h19.6H35.8z"/>
	<path d="M503.8,349.2h-28.3c-3.1,0-5.7,2.5-5.7,5.7s2.5,5.7,5.7,5.7h28.3c3.1,0,5.7-2.5,5.7-5.7S506.9,349.2,503.8,349.2z"/>
	<path d="M349.4,306.4c1,1.9,3,2.9,5,2.9c0.9,0,1.9-0.2,2.7-0.7c0.7-0.4,71.1-38.5,146.5-34.6c3.1,0.2,5.8-2.2,5.9-5.4
		s-2.2-5.8-5.4-5.9c-78.6-4-149.5,34.4-152.5,36C348.9,300.2,347.9,303.7,349.4,306.4z"/>
</g>
</svg>