<svg height='300px' width='300px'  fill="#000000" xmlns="http://www.w3.org/2000/svg" xmlns:xlink="http://www.w3.org/1999/xlink" version="1.1" x="0px" y="0px" viewBox="0 0 512 512" style="enable-background:new 0 0 512 512;" xml:space="preserve"><path d="M314.6,320.2c0-7.2-1.8-20.8-13.8-29.4c-9.3-6.8-21.3-8.2-32.2-3.7c-2.9,1.2-4.3,4.5-3.1,7.5c1.2,2.9,4.5,4.3,7.5,3.1  c7.1-2.9,15-2,21.1,2.4c10.9,7.9,8.9,23.2,8.9,23.3c-0.4,2.8,1.3,5.5,4.1,6.3c10.1,3,16,9.8,17.5,20.3c0.3,2.2-0.3,4.3-1.8,6  c-1.5,1.7-3.7,2.7-6,2.7h-58.6c-2.3,0-4.5-1-6-2.9c-2-2.5-5.6-2.8-8.1-0.8c-2.5,2-2.8,5.6-0.8,8.1c3.7,4.5,9.1,7.1,14.9,7.1h58.6  c5.6,0,11-2.4,14.6-6.7c3.6-4.2,5.2-9.7,4.4-15.2C333.9,335,326.4,325.1,314.6,320.2z"></path><path d="M228.6,270.3c6.1,6.1,9.8,14.7,10.9,24.8c0.2,1.9,0.3,3.9,0.3,5.9c0,2.4,1.6,4.6,3.9,5.4c0.1,0,6,2.2,11.2,8.7  c3.3,4.2,4,9.6,1.6,14.4c-2.4,4.9-7,7.9-12.5,7.9h-65c-3.2,0-5.7,2.6-5.7,5.7c0,3.2,2.6,5.7,5.7,5.7h65c9.8,0,18.6-5.5,22.8-14.4  c4.2-8.8,3.1-19-3-26.6c-4.5-5.6-9.4-8.9-12.6-10.7c-0.1-1.1-0.1-2.3-0.3-3.4c-1.3-12.7-6.2-23.6-14.2-31.6c-2.2-2.3-5.9-2.3-8.1,0  C226.4,264.4,226.4,268,228.6,270.3z"></path><path d="M194.8,356.1c-3.2,0-5.7,2.6-5.7,5.7v54.7c0,3.2,2.6,5.7,5.7,5.7c3.2,0,5.7-2.6,5.7-5.7v-18.3c0-6.4,3.4-12.3,8.9-15.5  l0.3-0.2c6.7-3.9,11.5-10.2,13.6-17.8c0.8-3.1-1-6.2-4-7c-3.1-0.8-6.2,1-7,4c-1.2,4.6-4.2,8.4-8.3,10.8l-0.3,0.2  c-1.1,0.6-2.1,1.3-3.1,2.1v-13.1C200.6,358.7,198,356.1,194.8,356.1z"></path><path d="M123.5,433.6H97.5c6.8-7.1,10.9-16.7,10.9-27v-83.8c0-3.2-2.6-5.7-5.7-5.7c-3.2,0-5.7,2.6-5.7,5.7v26.1  c-0.3-0.2-0.6-0.5-0.9-0.7L86,340.5c-4.9-3.7-7.8-9.6-7.8-15.8c0-3.2-2.6-5.7-5.7-5.7c-3.2,0-5.7,2.6-5.7,5.7  c0,9.7,4.6,19,12.4,24.9l10.1,7.6c4.9,3.7,7.8,9.6,7.8,15.8v33.5c0,12.9-9,24.1-21.4,26.8c-0.7,0.2-1.2,0.2-1.2,0.2  c-3,0.4-5.2,3-5,6c0.2,3,2.7,5.4,5.7,5.4h48.4c3.2,0,5.7-2.6,5.7-5.7C129.2,436.1,126.6,433.6,123.5,433.6z"></path><path d="M363.9,290.2c0-3.2-2.6-5.7-5.7-5.7s-5.7,2.6-5.7,5.7v116.4c0,12.9-7.8,24.2-18.6,26.9c-0.3,0.1-0.5,0.1-0.7,0.1h-43.3  v-21.1v-1.9c0-2.8,1.8-5.3,4.4-6.3l7.1-2.6c7.1-2.6,11.8-9.5,11.8-17c0-3.2-2.6-5.7-5.7-5.7c-3.2,0-5.7,2.6-5.7,5.7  c0,2.8-1.8,5.3-4.4,6.3l-7.1,2.6c-0.1,0-0.2,0.1-0.3,0.1v-9.1c0-3.2-2.6-5.7-5.7-5.7c-3.2,0-5.7,2.6-5.7,5.7v22.4c0,0-0.1,0-0.1,0  l-8.2-4.1c-3.2-1.6-5.2-4.9-5.2-8.5v-8.6c0-3.2-2.6-5.7-5.7-5.7c-3.2,0-5.7,2.6-5.7,5.7v8.6c0,8,4.4,15.2,11.5,18.7l8.2,4.1  c3.2,1.6,5.2,4.9,5.2,8.5v7.8H259c-3.2,0-5.7,2.6-5.7,5.7c0,3.2,2.6,5.7,5.7,5.7h74.6c0,0,0,0,0,0c0,0,0,0,0,0H379  c3.2,0,5.7-2.6,5.7-5.7c0-3.2-2.6-5.7-5.7-5.7H354c6.1-7.1,9.8-16.7,9.8-27V290.2z"></path><path d="M431.5,319c-3.2,0-5.7,2.6-5.7,5.7v61.1v8.6V420c0,3.2,2.6,5.7,5.7,5.7s5.7-2.6,5.7-5.7v-25.6v-8.6c0-5.8,3.1-11.2,8.2-14  l1.4-0.8c8.6-4.9,14-14.1,14-24c0-3.2-2.6-5.7-5.7-5.7c-3.2,0-5.7,2.6-5.7,5.7c0,5.8-3.1,11.2-8.2,14l-1.4,0.8  c-0.9,0.5-1.7,1-2.5,1.6v-38.7C437.2,321.6,434.6,319,431.5,319z"></path><path d="M234.5,433.6h-7.4c-3.2,0-5.7,2.6-5.7,5.7c0,3.2,2.6,5.7,5.7,5.7h7.4c3.2,0,5.7-2.6,5.7-5.7  C240.2,436.1,237.6,433.6,234.5,433.6z"></path><path d="M52.7,445c3.2,0,5.7-2.6,5.7-5.7c0-3.2-2.6-5.7-5.7-5.7h-4.5c-3.2,0-5.7,2.6-5.7,5.7c0,3.2,2.6,5.7,5.7,5.7H52.7z"></path><path d="M31,231.1c0.4,0.6,7,12.3,20.2,16c0.5,0.1,1,0.2,1.5,0.2c2.5,0,4.8-1.7,5.5-4.2c0.9-3-0.9-6.2-4-7.1  c-8.5-2.4-13.1-10.3-13.3-10.5c0,0,0,0,0,0c-0.2-0.3-7.9-14.6-3-30.4c3.4-11.1,12.3-20.3,26.4-27.4c1.3-0.7,2.3-1.8,2.8-3.2  c0.1-0.2,8.5-23.2,38.9-29.3c12.3-2.5,24.9-0.3,34.6,5.9c6.6,4.3,11.2,9.8,13.8,16.4c0.7,1.7,2.1,3,3.8,3.5  c0.6,0.2,58.6,16.8,57.3,71.5c-0.3,3.8-6,63.2-78.7,65.9c-3.2,0.1-5.6,2.8-5.5,5.9c0,0.4,0.1,0.8,0.2,1.2c-0.1,0.5-0.2,0.9-0.2,1.4  v51.3v1.5v46.9c0,18.2,12.8,34.2,30.5,38c1.3,0.3,2.1,0.4,2.2,0.4c0.2,0,0.5,0,0.7,0c0,0,0,0,0,0h37.7c3.2,0,5.7-2.6,5.7-5.7  c0-3.2-2.6-5.7-5.7-5.7h-37.2c-0.2,0-0.5-0.1-0.9-0.2c-12.4-2.7-21.4-14-21.4-26.8v-46.9v-1.5c0-6.8,4-12.8,10.3-15.4  c8.9-3.7,15.3-11.6,16.9-21.1c0.5-3.1-1.5-6.1-4.6-6.6c-3.1-0.6-6.1,1.5-6.6,4.6c-1,5.6-4.7,10.3-10,12.5c-2.1,0.9-4.1,2-5.9,3.3  v-26.1c40.1-3.1,60.8-22.8,71.2-39.1c11.7-18.5,13-36.5,13-37.3c0-0.1,0-0.1,0-0.2c0.7-26.4-10.6-49.2-32.5-65.8  c-12.6-9.5-25.1-14.4-30.6-16.3c-3.6-7.8-9.3-14.3-17.2-19.3c-12.1-7.8-27.8-10.5-43.1-7.5c-31.2,6.3-43.3,27.5-46.5,34.6  C41.4,167,31.2,178.2,27,191.8C20.7,212.3,30.5,230.4,31,231.1C31,231.1,31,231.1,31,231.1z"></path><path d="M112.4,298.4H99c-10.7,0-20.7-1.9-29.7-5.7c-19.5-8.1-29.7-22-30.4-41.2c-0.1-3.2-2.8-5.6-5.9-5.5c-3.2,0.1-5.6,2.8-5.5,5.9  c1.1,30,21,44.5,37.5,51.3c10.5,4.4,22,6.6,34.1,6.6h13.4c3.2,0,5.7-2.6,5.7-5.7S115.5,298.4,112.4,298.4z"></path><path d="M457,147.7c1.9-10.5,0.5-22.4-4.3-35.4c-5.6-15.4-16-28.4-29.2-36.4c-33.1-20.1-63.1-1-72,5.8c-9.7-2.7-39.3-8.1-65.9,15.3  c-12,10.5-20.3,24.8-24.1,41.4c-3.3,14.2-4.9,33.8,4.4,49.6c-13,15-16.2,35.5-8.2,54c8.4,19.4,26.6,31.4,47.7,31.4h60.9  c3.2,0,5.7-2.6,5.7-5.7c0-3.2-2.6-5.7-5.7-5.7h-60.9c-16.4,0-30.6-9.4-37.2-24.5c-6.4-14.9-3.5-31.5,7.6-43.3  c0.7-0.8,1.2-1.2,1.3-1.3c2.2-2,2.5-5.3,0.7-7.7c-9.6-12.8-8.1-31.1-5.1-44.2c3.3-14.2,10.4-26.4,20.5-35.3  c26.5-23.3,56.3-12.6,57.6-12.2c2,0.8,4.3,0.3,5.9-1.1c1.2-1.1,29-25.9,61-6.6c11,6.7,19.7,17.5,24.4,30.5c3.2,8.7,6.3,21.5,2.9,33  c-0.8,2.8,0.7,5.9,3.4,6.9c0.6,0.2,13.6,5.5,21.7,22.9c13.3,28.7,2.2,62.1-25.2,76c-9.1,4.6-19.5,6.9-31.1,6.9h-25.1  c-3.2,0-5.7,2.6-5.7,5.7c0,0.5,0.1,0.9,0.2,1.4c-0.1,0.4-0.2,0.9-0.2,1.4v75.8v11.3v49.1c0,18.2,11.5,34.1,27.4,38  c1.2,0.3,1.9,0.4,2.1,0.4c0.3,0,0.5,0.1,0.8,0.1c0,0,0,0,0,0h36.6c3.2,0,5.7-2.6,5.7-5.7c0-3.2-2.6-5.7-5.7-5.7h-36.1  c-0.2,0-0.4-0.1-0.7-0.1c-10.8-2.6-18.6-13.9-18.6-26.9v-49.1v-11.3c0-7.6,3.2-14.9,8.8-19.9l8.8-8c8-7.3,12.6-17.6,12.6-28.4  c0-3.2-2.6-5.7-5.7-5.7c-3.2,0-5.7,2.6-5.7,5.7c0,7.6-3.2,14.9-8.8,19.9l-8.8,8c-0.4,0.4-0.8,0.7-1.1,1.1v-45.4h19.3  c13.4,0,25.6-2.7,36.3-8.1c16-8.1,27.9-22,33.6-39.2c5.6-17,4.5-35.4-3.1-51.8C473.4,159,463,151.1,457,147.7z"></path></svg>