<svg height='300px' width='300px'  fill="#000000" xmlns="http://www.w3.org/2000/svg" xmlns:xlink="http://www.w3.org/1999/xlink" version="1.1" x="0px" y="0px" viewBox="0 0 512 512" style="enable-background:new 0 0 512 512;" xml:space="preserve"><path d="M173,264c0.8,2.4,3,3.8,5.4,3.8c0.6,0,1.3-0.1,1.9-0.3c63.7-22.6,132.9-21.6,179.7-16.8c3.2,0.3,6-2,6.3-5.1  c0.3-3.2-2-6-5.1-6.3c-48-4.9-119-5.9-184.7,17.4C173.5,257.7,171.9,261,173,264z"></path><path d="M145.1,150.4c24.1,0,43.6-19.6,43.6-43.6s-19.6-43.6-43.6-43.6c-24.1,0-43.6,19.6-43.6,43.6S121,150.4,145.1,150.4z   M145.1,74.6c17.7,0,32.2,14.4,32.2,32.2c0,17.7-14.4,32.2-32.2,32.2c-17.7,0-32.2-14.4-32.2-32.2C112.9,89,127.3,74.6,145.1,74.6z"></path><path d="M484.9,227c-15.6,0-32.4,2.3-50.3,6.9l-2.8-11c-0.8-3.1-3.9-4.9-7-4.2c-3.1,0.8-4.9,3.9-4.2,7l2.8,11.3  c-2.5,0.8-5.1,1.6-7.7,2.4c-4.5-13.3-15-22.1-15.5-22.6c-2.4-2-6.1-1.7-8.1,0.7c-2,2.4-1.7,6,0.7,8.1c0.1,0.1,11.2,9.6,13.2,22.1  c0.1,0.3,0.1,0.7,0.2,1c0,0,0,0,0,0c0,0,0,0,0,0c0,0.1,0,0.1,0.1,0.2c0.1,0.3,0.2,0.5,0.3,0.7c0.1,0.1,0.1,0.2,0.2,0.3  c0.1,0.2,0.2,0.4,0.4,0.5c0.1,0.1,0.2,0.2,0.2,0.3c0.1,0.1,0.3,0.3,0.4,0.4c0.1,0.1,0.2,0.2,0.3,0.2c0.1,0.1,0.3,0.2,0.5,0.3  c0.1,0.1,0.2,0.1,0.3,0.2c0.2,0.1,0.3,0.2,0.5,0.2c0.1,0.1,0.3,0.1,0.4,0.2c0.2,0.1,0.3,0.1,0.5,0.1c0.1,0,0.3,0.1,0.4,0.1  c0.3,0,0.5,0.1,0.8,0.1c0.1,0,0.1,0,0.2,0c0.3,0,0.6,0,0.9-0.1c0,0,0,0,0,0c0.3-0.1,0.7-0.1,1-0.2c25.9-9.1,49.8-13.7,71.1-13.7  c3.2,0,5.7-2.6,5.7-5.7C490.7,229.6,488.1,227,484.9,227z"></path><path d="M389.5,249.3c-33,13.9-69.1,34.3-107.5,60.8c-6.5,4.5-13.7,8.9-21.2,13.1c-2.8,1.5-3.8,5-2.3,7.8c1,1.9,3,3,5,3  c0.9,0,1.9-0.2,2.8-0.7c7.9-4.4,15.4-9,22.2-13.7c37.7-26.1,73.2-46.2,105.4-59.7c2.9-1.2,4.3-4.6,3.1-7.5  C395.8,249.4,392.4,248.1,389.5,249.3z"></path><path d="M28.2,256.1c0.8-0.2,84.2-15.1,163.2,55.6c38.9,34.8,75.3,53.4,103.2,63.4h-89.8c0.2-1.3,0.6-2.7,1.1-4.3  c1-3-0.7-6.2-3.7-7.2c-3-1-6.2,0.7-7.2,3.7c-1,2.9-1.5,5.6-1.8,7.9h-8.8c0.3-11.4-0.8-22.3-3.2-32.4c-0.7-3.1-3.8-5-6.9-4.2  c-3.1,0.7-5,3.8-4.2,6.9c2.6,10.8,3.5,22.6,2.7,35.1c-0.1,1.6,0.5,3.1,1.5,4.3c1.1,1.2,2.6,1.8,4.2,1.8h208.8c2.8,0,5.2-2,5.7-4.8  c4.9-30.4-10.8-51.2-11.5-52c-1.9-2.5-5.5-3-8-1c-2.5,1.9-3,5.5-1.1,8c0.1,0.2,11.7,15.7,9.9,38.4h-3.4c-2.8-11.8-13.5-17.5-14-17.8  c-2.8-1.4-6.2-0.4-7.7,2.4c-1.5,2.8-0.4,6.2,2.4,7.7c0.3,0.1,4.9,2.7,7.2,7.6h-18.1c-0.7,0-70.2-1.1-149.4-72  c-43.4-38.9-88-52.7-117.8-57.4c-32.4-5.2-54.4-1.1-55.3-0.9c-3.1,0.6-5.1,3.6-4.6,6.7C22,254.7,25,256.7,28.2,256.1z"></path><path d="M27.1,386.5H158c3.2,0,5.7-2.6,5.7-5.7c0-9.7-3.4-18.2-10.3-25.2c-2.2-2.3-5.8-2.4-8.1-0.2c-2.3,2.2-2.3,5.8-0.2,8.1  c3.3,3.4,5.4,7.3,6.4,11.5H27.1c-3.2,0-5.7,2.6-5.7,5.7S23.9,386.5,27.1,386.5z"></path><path d="M484.9,375.1h-71.4c1.3-12.2,6.8-18.7,7.1-19c2.1-2.3,1.9-6-0.4-8.1c-2.3-2.1-6-1.9-8.1,0.4c-0.4,0.5-10.4,11.8-10.3,32.5  c0,3.1,2.6,5.7,5.7,5.7h77.4c3.2,0,5.7-2.6,5.7-5.7S488.1,375.1,484.9,375.1z"></path><path d="M59.5,421.8c0.1,0.1,13,6.2,14.4,21.9c0.3,3,2.8,5.2,5.7,5.2c0.2,0,0.3,0,0.5,0c3.2-0.3,5.5-3.1,5.2-6.2  c-2-22.2-20.2-30.9-21-31.3c-2.9-1.3-6.3-0.1-7.6,2.8C55.4,417,56.7,420.4,59.5,421.8z"></path><path d="M98.4,448.9c0.2,0,0.3,0,0.5,0c2.9,0,5.4-2.3,5.7-5.2c1.3-15.1-5.1-25-5.4-25.4c-1.7-2.6-5.3-3.4-7.9-1.6  c-2.6,1.7-3.4,5.3-1.6,7.9c0,0.1,4.5,7.1,3.5,18.1C92.9,445.8,95.2,448.6,98.4,448.9z"></path><path d="M268.9,402.9c-0.8,0.4-19,9-21,31.3c-0.3,3.2,2,5.9,5.2,6.2c0.2,0,0.3,0,0.5,0c2.9,0,5.4-2.2,5.7-5.2  c1.4-15.5,13.8-21.6,14.4-21.9c2.9-1.3,4.1-4.7,2.8-7.6C275.2,402.8,271.8,401.6,268.9,402.9z"></path><path d="M242,408.2c-2.6-1.8-6.2-1-7.9,1.6c-0.3,0.4-6.7,10.3-5.4,25.4c0.3,3,2.8,5.2,5.7,5.2c0.2,0,0.3,0,0.5,0  c3.2-0.3,5.5-3.1,5.2-6.2c-0.9-10.9,3.3-17.7,3.5-18.1C245.3,413.5,244.6,410,242,408.2z"></path><path d="M395.8,411.4c-2.9-1.3-6.3-0.1-7.6,2.8c-1.3,2.9-0.1,6.3,2.8,7.6c0.1,0.1,13,6.2,14.4,21.9c0.3,3,2.8,5.2,5.7,5.2  c0.2,0,0.3,0,0.5,0c3.2-0.3,5.5-3.1,5.2-6.2C414.8,420.4,396.6,411.7,395.8,411.4z"></path><path d="M429.8,448.9c0.2,0,0.3,0,0.5,0c2.9,0,5.4-2.3,5.7-5.2c1.3-15.1-5.1-25-5.4-25.4c-1.7-2.6-5.3-3.4-7.9-1.6  c-2.6,1.7-3.4,5.3-1.6,7.9c0,0.1,4.5,7.1,3.5,18.1C424.3,445.8,426.6,448.6,429.8,448.9z"></path></svg>