<svg height='300px' width='300px'  fill="#000000" xmlns="http://www.w3.org/2000/svg" xmlns:xlink="http://www.w3.org/1999/xlink" version="1.1" x="0px" y="0px" viewBox="0 0 512 512" style="enable-background:new 0 0 512 512;" xml:space="preserve"><path d="M187.5,287.4c1.4-2.8,0.3-6.3-2.6-7.7l-9.7-4.9c-4.5-2.3-8.1-6.1-10-10.7l-2.2-5.2c-2.6-6.2-7.3-11.5-13.2-14.8l-6.2-3.5  c-3.6-2-7.9-2.3-11.8-0.7c-3.8,1.6-6.7,4.8-7.8,8.8l-7.1,25.1c-2.1,7.5-7,13.8-13.8,17.7c-8.6,4.9-15.1,12.8-18.4,22.1l-18.8,53.7  c-1,3,0.5,6.3,3.5,7.3c0.6,0.2,1.3,0.3,1.9,0.3c2.4,0,4.6-1.5,5.4-3.8l18.8-53.7c2.4-6.7,7.1-12.4,13.3-15.9  c9.4-5.4,16.2-14.1,19.1-24.5l7.1-25.1c0.2-0.8,0.8-1.2,1.2-1.3c0.3-0.1,1-0.3,1.8,0.1l6.2,3.5c3.7,2.1,6.6,5.3,8.3,9.2l2.2,5.2  c3,7.2,8.5,13,15.4,16.5l9.7,4.9C182.6,291.4,186,290.2,187.5,287.4z"></path><path d="M407,340.5c-0.3-0.9-0.7-1.8-0.9-2.8c-2.5-8.1-6.5-15.7-12.1-22.7c-7-8.8-28.1-35.6-52.1-68.2c-1.9-2.6-5.5-3.1-8-1.2  c-2.6,1.9-3.1,5.5-1.2,8c24.1,32.8,45.4,59.7,52.4,68.5c4.7,5.9,8.1,12.3,10.1,19c0.4,1.2,0.8,2.3,1.2,3.5  c4.3,11.3,13.7,19.9,25.9,23.7c12.1,3.7,20.9,10.3,26.5,15.7h-9.4c-3.2,0-5.7,2.6-5.7,5.7c0,3.2,2.6,5.7,5.7,5.7h21.9c0,0,0,0,0,0  c0,0,0,0,0,0h21.5c3.2,0,5.7-2.6,5.7-5.7c0-3.2-2.6-5.7-5.7-5.7h-18.5c-4.5-5.9-17-20-38.6-26.7C416.8,354.6,410,348.5,407,340.5z"></path><path d="M228.1,225.9c-9,8.2-15.7,18.2-19.2,28.8c-6.2,18.4-17.7,45.9-37.6,72.4c-1.9,2.5-1.4,6.1,1.2,8c1,0.8,2.2,1.1,3.4,1.1  c1.7,0,3.5-0.8,4.6-2.3c20.8-27.7,32.8-56.4,39.3-75.6c3-8.8,8.5-17.1,16.1-24c15.8-14.4,23.3-34.7,26.4-45.4  c1.1-3.8,3-7.4,5.6-10.3l0.9-1c1.5-1.7,3.8-2.6,6.1-2.4c2.3,0.2,4.4,1.4,5.6,3.4c8.9,14,19,28.9,30.8,45.5h-5.3  c-3.2,0-5.7,2.6-5.7,5.7c0,3.2,2.6,5.7,5.7,5.7h29.9h48.5c3.2,0,5.7-2.6,5.7-5.7c0-3.2-2.6-5.7-5.7-5.7h-33.8c1.5-2.6,2.6-5,3.2-6.3  c2.8-6.3,11.7-4.2,12.1-4.1c1.7,0.4,3.5,0,4.9-1c1.4-1.1,2.2-2.8,2.2-4.5c0-19.1,15.9-20.7,18.1-20.8c20.3,0.1,21.7,19.6,21.8,21.9  c0.1,3.1,2.6,5.6,5.7,5.6c10.2,0,15.8,4.9,18.8,9.4h-20.6c-3.2,0-5.7,2.6-5.7,5.7c0,3.2,2.6,5.7,5.7,5.7h29.3c1.7,0,3.4-0.8,4.4-2.1  s1.5-3.1,1.2-4.8c-1.7-8.1-9.6-22.8-27.9-25.1c-2.2-11.7-10.7-27.7-32.8-27.7c-0.1,0-0.1,0-0.2,0c-9.2,0.3-25.8,6.3-28.8,26  c-6.7,0.1-14.8,2.6-18.7,11.4c-2.1,4.9-5.7,10.2-7.5,10.9h-10.3c-13.7-19.1-25.2-36-35.2-51.7c-3.2-5-8.4-8.2-14.4-8.7  c-5.9-0.5-11.6,1.8-15.5,6.2l-0.9,1c-3.8,4.2-6.6,9.3-8.1,14.8C248.4,195.4,241.8,213.4,228.1,225.9z"></path><path d="M64.1,181.5h76.8c3.2,0,5.7-2.6,5.7-5.7c0-3.2-2.6-5.7-5.7-5.7H84.4c1.3-1.9,2.3-4,3.2-6.2c4.8-12.3,22.2-9.4,22.9-9.3  c1.6,0.3,3.2-0.1,4.5-1.1c1.3-1,2.1-2.5,2.2-4.1c0.8-9.5,5-16,12.5-19.4c5.2-2.4,11.5-2.6,17.7-0.7c16.4,5.1,19.6,20.6,19.8,21.2  c0.3,1.8,1.5,3.3,3.1,4.1c1.6,0.8,3.5,0.8,5.2-0.1c0.4-0.2,0.8-0.4,1.2-0.6c7.9-3.6,17.5-0.5,21.9,7.1c2,3.4,4.5,6.4,7,9h-29.7  c-3.2,0-5.7,2.6-5.7,5.7c0,3.2,2.6,5.7,5.7,5.7h47.7h9.3c3.2,0,5.7-2.6,5.7-5.7c0-3.2-2.6-5.7-5.7-5.7h-8  c-2.9-1.5-11.8-6.7-16.4-14.7c-6.5-11.3-19.9-16.6-32.1-13.4c-3-7.3-10.1-18.8-25.6-23.6c-8.9-2.7-18-2.3-25.8,1.2  c-7,3.2-15.4,9.7-18.3,23.1c-10.1-0.2-24.4,3.1-29.8,16.9c-1,2.6-2.9,6.2-6.4,8.4c-2.1,1.4-4.3,2.1-6.6,2.1c-3.2,0-5.7,2.6-5.7,5.7  C58.3,179,60.9,181.5,64.1,181.5z"></path><path d="M55.1,395.4h31.8c9.4,0,18.4-3.6,24.7-9.9c5.5-5.5,8.5-12.2,8.5-19.4c0,0,0-0.1,0-0.2c0-0.6-0.2-13.7,11.7-19.9  c10.8-5.6,23.8-2.6,30.2,7c1.4,2.1,2.5,4.5,3.3,7.1c2.6,9.3,12.1,14.8,21.2,12.4c0.5-0.1,1-0.3,1.5-0.4c2.4-0.6,25.2-5.4,36.3,11.8  h-89c-3.2,0-5.7,2.6-5.7,5.7c0,3.2,2.6,5.7,5.7,5.7h98c0,0,0,0,0,0c0,0,0,0,0,0h39.3c3.2,0,5.7-2.6,5.7-5.7c0-3.2-2.6-5.7-5.7-5.7  H237c-11.1-25.7-38.6-26.4-52.3-22.8c-0.1,0-0.3,0.1-0.4,0.1c-0.4,0.1-0.7,0.2-1,0.3c-3.1,0.8-6.3-1.1-7.2-4.5  c-1.1-3.8-2.7-7.3-4.8-10.4c-9.7-14.5-29-19.1-45-10.7c-17.8,9.3-17.9,28.3-17.8,30.3c0,4.1-1.7,7.8-5.1,11.2  c-4.2,4.2-10.2,6.6-16.6,6.6H55.1c-3.2,0-5.7,2.6-5.7,5.7C49.3,392.8,51.9,395.4,55.1,395.4z"></path><path d="M29.4,395.4h4.5c3.2,0,5.7-2.6,5.7-5.7c0-3.2-2.6-5.7-5.7-5.7h-4.5c-3.2,0-5.7,2.6-5.7,5.7  C23.6,392.8,26.2,395.4,29.4,395.4z"></path><path d="M339.1,389.7c0,3.2,2.6,5.7,5.7,5.7h73.9c3.2,0,5.7-2.6,5.7-5.7c0-3.2-2.6-5.7-5.7-5.7h-7.3c-4.5-5.2-9.1-13.2-12.1-19.6  c-0.4-0.9-0.9-1.9-1.5-2.9c-12.6-22.3-38.7-18.6-50.9-13.5c-13.7,4.9-17.1-1.8-18.3-4.1c-4.8-9.2-13.3-15.5-22.9-17  c-7.3-1.1-13,0.2-14.3,0.6c-12.6,2.6-22.1,11.4-26.8,24.8c-2.3,6.5-5.9,12.4-10.4,17.3c-2.2,2.3-2.1,5.9,0.2,8.1  c2.3,2.2,5.9,2.1,8.1-0.2c5.7-6,10.1-13.4,12.9-21.3c3.4-9.8,9.6-15.6,18.4-17.4c0.1,0,0.3-0.1,0.4-0.1c0,0,4.3-1.1,9.8-0.3  c6,0.9,11.4,5,14.4,10.9c2.8,5.4,11.5,17,32.5,9.5c0.1,0,0.2-0.1,0.3-0.1c1-0.4,25.8-10.6,36.6,8.5c0.4,0.7,0.8,1.5,1.2,2.3  c1.5,3,4.4,8.8,8.1,14.5h-52.3C341.7,383.9,339.1,386.5,339.1,389.7z"></path><path d="M309.2,383.9h-6.6c-3.2,0-5.7,2.6-5.7,5.7c0,3.2,2.6,5.7,5.7,5.7h6.6c3.2,0,5.7-2.6,5.7-5.7  C314.9,386.5,312.4,383.9,309.2,383.9z"></path></svg>