<svg height='300px' width='300px'  fill="#000000" xmlns="http://www.w3.org/2000/svg" xmlns:xlink="http://www.w3.org/1999/xlink" version="1.1" x="0px" y="0px" viewBox="0 0 512 512" style="enable-background:new 0 0 512 512;" xml:space="preserve">
<g>
	<path d="M88.1,128.2c11.4,0,20.6-9.3,20.6-20.6s-9.3-20.6-20.6-20.6c-11.4,0-20.6,9.3-20.6,20.6S76.7,128.2,88.1,128.2z M88.1,97.9
		c5.3,0,9.6,4.3,9.6,9.6s-4.3,9.6-9.6,9.6c-5.3,0-9.6-4.3-9.6-9.6S82.8,97.9,88.1,97.9z"/>
	<path d="M482.9,210.4c0-11.4-9.3-20.6-20.6-20.6c-11.4,0-20.6,9.3-20.6,20.6s9.3,20.6,20.6,20.6C473.6,231,482.9,221.7,482.9,210.4
		z M462.2,220c-5.3,0-9.6-4.3-9.6-9.6s4.3-9.6,9.6-9.6c5.3,0,9.6,4.3,9.6,9.6S467.6,220,462.2,220z"/>
	<path d="M415.4,431.5c-14,0-25.3,11.4-25.3,25.3c0,14,11.4,25.3,25.3,25.3s25.3-11.4,25.3-25.3
		C440.7,442.8,429.3,431.5,415.4,431.5z M415.4,471.1c-7.9,0-14.3-6.4-14.3-14.3c0-7.9,6.4-14.3,14.3-14.3s14.3,6.4,14.3,14.3
		C429.7,464.7,423.2,471.1,415.4,471.1z"/>
	<path d="M350.6,80.3h9v8.1c0,3,2.5,5.5,5.5,5.5s5.5-2.5,5.5-5.5v-8.1h9c3,0,5.5-2.5,5.5-5.5s-2.5-5.5-5.5-5.5h-9v-9.9
		c0-3-2.5-5.5-5.5-5.5s-5.5,2.5-5.5,5.5v9.9h-9c-3,0-5.5,2.5-5.5,5.5S347.6,80.3,350.6,80.3z"/>
	<path d="M96.1,415.1h-9v-9.9c0-3-2.5-5.5-5.5-5.5s-5.5,2.5-5.5,5.5v9.9h-9c-3,0-5.5,2.5-5.5,5.5s2.5,5.5,5.5,5.5h9v8.1
		c0,3,2.5,5.5,5.5,5.5s5.5-2.5,5.5-5.5v-8.1h9c3,0,5.5-2.5,5.5-5.5S99.1,415.1,96.1,415.1z"/>
	<ellipse transform="matrix(0.3827 -0.9239 0.9239 0.3827 -216.3628 188.1903)" cx="32.6" cy="256" rx="12.5" ry="12.5"/>
	<circle cx="205.2" cy="46.4" r="9.9"/>
	<ellipse transform="matrix(0.9732 -0.2298 0.2298 0.9732 -65.2939 118.7697)" cx="477.4" cy="339.8" rx="10.5" ry="10.5"/>
	<circle cx="190.6" cy="463.3" r="12.5"/>
	<path d="M318.3,406c-19.7,8.2-40.7,12.4-62.3,12.4c-77.7,0-142.7-54.8-158.7-127.7c3.7-2.5,8-3.8,12.5-3.8
		c12.4,0,22.5,10.1,22.5,22.5c0,0.6,0,1.2-0.1,1.8c-0.1,0.9,0.1,1.7,0.4,2.5c1.1,2.8,4.3,4.1,7.1,3.1c6.9-2.7,14.2-4,21.6-4
		c32.9,0,59.6,26.8,59.6,59.6c0,4-0.4,7.9-1.2,11.7c-0.3,1.2-0.1,2.5,0.5,3.7c1,2.1,3.3,3.3,5.6,3c0.8-0.1,1.5-0.4,2.1-0.7
		c3.3-1.8,7-2.7,10.7-2.7c8.3,0,15.9,4.5,19.8,11.8c1,1.8,2.9,2.9,4.8,2.9c0.9,0,1.8-0.2,2.6-0.7c2.7-1.5,3.7-4.8,2.2-7.5
		c-5.9-10.8-17.2-17.5-29.5-17.5c-2.3,0-4.6,0.2-6.9,0.7c0.1-1.6,0.2-3.1,0.2-4.7c0-38.9-31.7-70.6-70.6-70.6
		c-6.3,0-12.5,0.8-18.5,2.4c-2.5-16-16.4-28.3-33.1-28.3c-5.1,0-10.1,1.2-14.6,3.3c-1-7.3-1.6-14.7-1.7-22.3h111.8
		c7.2,0,14.3-1.4,20.9-4.2c2.8-1.2,4.1-4.4,2.9-7.2s-4.4-4.1-7.2-2.9c-5.2,2.2-10.8,3.3-16.6,3.3H93.9c1.1-17.9,5.1-35.3,12-51.9
		c1.2-2.8-0.2-6-3-7.2c-2.8-1.2-6,0.2-7.2,3c-8.7,21-13.1,43.3-13.1,66.3c0,11.3,1.1,22.3,3.2,33.1c0,0.2,0.1,0.4,0.1,0.5
		c15.7,79.6,86,139.8,170.1,139.8c23,0,45.4-4.4,66.5-13.2c2.8-1.2,4.1-4.4,3-7.2C324.3,406.2,321.1,404.9,318.3,406z"/>
	<path d="M395.7,358.7c21.7-29.5,33.7-65.4,33.7-102.7c0-24.8-5.2-48.4-14.7-69.7c-0.1-0.4-0.3-0.7-0.5-1
		C387.1,124.8,326.4,82.6,256,82.6c-54.2,0-104.3,24.7-137.4,67.7c-1.9,2.4-1.4,5.9,1,7.7c2.4,1.9,5.9,1.4,7.7-1
		c7.8-10.1,16.6-19.2,26.2-27c0.7-0.1,1.4-0.1,2.1-0.1c15.1,0,27.5,11.8,28.6,26.6c-0.2,1-0.2,2.1,0.1,3.1l0.2,0.7
		c0.9,2.5,3.5,4.1,6.1,3.6c1.2-0.2,2.3-0.8,3.1-1.7c3.8-1.1,7.7-1.6,11.6-1.6c23.5,0,42.6,19.1,42.6,42.6c0,2.2-0.2,4.4-0.5,6.5
		c-0.5,3,1.6,5.8,4.6,6.3c0.3,0,0.6,0.1,0.8,0.1c2.7,0,5-1.9,5.4-4.7c0.4-2.7,0.6-5.4,0.6-8.2c0-29.6-24-53.6-53.6-53.6
		c-3.7,0-7.3,0.4-10.9,1.1c-2.9-14.6-13.9-26.3-28-30.4c25.9-17.1,56.3-26.5,88.4-26.8c1.7,25.5,22.9,45.7,48.8,45.7
		c5.4,0,10.7-0.9,15.8-2.6c4.6,15.2,18.7,25.9,35.2,25.9c3,0,5.5-2.5,5.5-5.5s-2.5-5.5-5.5-5.5c-13.3,0-24.3-9.9-25.6-23
		c-0.1-0.8-0.3-1.6-0.7-2.3c-1.3-2.2-4-3.2-6.5-2.4c-0.4,0.1-0.7,0.3-1.1,0.5c-5.3,2.7-11,4-17,4c-19.7,0-36-15.2-37.8-34.4
		c57.1,3.5,106.3,36.5,132.5,84c-2.4-0.4-4.8-0.7-7.3-0.7c-22.6,0-41.1,18.4-41.1,41.1c0,0,0,0,0,0c-7.5-2.5-15.4-3.8-23.5-3.8
		c-40.5,0-73.4,32.9-73.4,73.4c0,15.3,4.6,29.9,13.4,42.3c1.1,1.5,2.8,2.3,4.5,2.3c1.1,0,2.2-0.3,3.2-1c2.5-1.8,3.1-5.2,1.3-7.7
		c-7.5-10.6-11.4-23-11.4-35.9c0-34.4,28-62.4,62.4-62.4c9.6,0,18.9,2.1,27.4,6.3c0.7,0.4,1.4,0.6,2.2,0.7c2.3,0.2,4.6-1.1,5.5-3.3
		c0.5-1.2,0.6-2.5,0.2-3.7c-0.6-2.3-0.9-4.7-0.9-7.1c0-16.6,13.5-30.1,30.1-30.1c4.9,0,9.8,1.2,14.1,3.5
		c8.5,19.7,13.3,41.4,13.3,64.2c0,34.2-10.7,67-30.1,94.3h-61.7c-4.2,0-8.4-0.4-12.4-1.2c-3-0.6-5.9,1.3-6.5,4.3
		c-0.6,3,1.3,5.9,4.3,6.5c4.8,1,9.7,1.5,14.6,1.5h53.2c-5.5,6.5-11.6,12.6-18.2,18.2c-2.3,2-2.6,5.4-0.6,7.8
		c1.1,1.3,2.6,1.9,4.2,1.9c1.3,0,2.5-0.4,3.6-1.3c10-8.6,18.9-18.2,26.6-28.5C395.4,359.1,395.6,358.9,395.7,358.7z"/>
</g>
</svg>