<svg height='300px' width='300px'  fill="#000000" xmlns="http://www.w3.org/2000/svg" xmlns:xlink="http://www.w3.org/1999/xlink" version="1.1" x="0px" y="0px" viewBox="0 0 512 512" style="enable-background:new 0 0 512 512;" xml:space="preserve">
<g>
	<path d="M76.7,158c0-3.1-2.5-5.5-5.5-5.5H42.7c2.5-2.4,4.8-5.3,6.7-8.6c4.2-7.3,13.5-10.3,21-6.8c0.4,0.2,0.8,0.4,1.2,0.6
		c1.5,0.8,3.4,0.8,4.9,0c1.5-0.8,2.7-2.2,3-3.9c0.1-0.7,3.2-15.6,19-20.4c6-1.8,12-1.5,17,0.7c7.2,3.3,11.2,9.5,12,18.6
		c0.1,1.5,1,3,2.1,3.9c1.2,1,2.8,1.3,4.3,1.1c0.2,0,17.4-3,22,8.9c0.9,2.2,1.9,4.1,3.1,6h-54.2c-3.1,0-5.5,2.5-5.5,5.5
		c0,3.1,2.5,5.5,5.5,5.5h73.8c3.1,0,5.5-2.5,5.5-5.5c0-3.1-2.5-5.5-5.5-5.5c-2.1,0-4.2-0.7-6.3-2c-3.3-2.1-5.2-5.6-6.1-8.1
		c-5.2-13.4-18.8-16.4-28.6-16.2c-2.8-12.9-10.9-19.1-17.6-22.2c-7.5-3.4-16.3-3.8-24.8-1.2c-15,4.6-21.7,15.7-24.6,22.7
		c-11.7-3.1-24.6,2-30.8,12.9C34.3,147.8,23.1,153,23,153c-2.4,1.1-3.7,3.7-3.2,6.1c0.8,2.5,3,4.3,5.6,4.3h45.8
		C74.3,163.5,76.7,161,76.7,158z"/>
	<path d="M197.3,152.5c-3.1,0-5.5,2.5-5.5,5.5c0,3,2.5,5.5,5.5,5.5h1.3c3.1,0,5.5-2.5,5.5-5.5c0-3.1-2.5-5.5-5.5-5.5H197.3z"/>
	<path d="M196.6,89.5h28.7h46.5c3.1,0,5.5-2.5,5.5-5.5c0-3.1-2.5-5.5-5.5-5.5h-32.4c1.4-2.5,2.5-4.8,3.1-6c2.7-6,11.2-4,11.6-3.9
		c1.6,0.4,3.4,0,4.7-1c1.3-1.1,2.1-2.7,2.1-4.3c0-18.3,15.2-19.8,17.3-19.9c19.5,0.1,20.8,18.8,20.9,21c0.1,3,2.5,5.4,5.5,5.4
		c9.8,0,15.1,4.7,18,9h-19.7c-3.1,0-5.5,2.5-5.5,5.5c0,3.1,2.5,5.5,5.5,5.5h28.1c1.6,0,3.3-0.8,4.2-2c1-1.2,1.4-3,1.2-4.6
		c-1.6-7.8-9.2-21.9-26.7-24.1c-2.1-11.2-10.3-26.5-31.4-26.5c-0.1,0-0.1,0-0.2,0c-8.8,0.3-24.7,6-27.6,24.9
		c-6.4,0.1-14.2,2.5-17.9,10.9c-2,4.7-5.5,9.8-7.2,10.4l-28.6-0.2c-3.1,0-5.5,2.5-5.5,5.5C191.1,87.1,193.6,89.5,196.6,89.5z"/>
	<path d="M154.5,462.8H135v-58.5c0-3-2.5-5.5-5.5-5.5s-5.5,2.5-5.5,5.5v58.5H74.6v-31.8c15-2.5,26.4-15.5,26.4-31.2
		c0-17.4-14.2-31.6-31.6-31.6s-31.6,14.2-31.6,31.6c0,15.5,11.2,28.4,25.9,31.1v31.9H42.3c-3,0-5.5,2.5-5.5,5.5s2.5,5.5,5.5,5.5
		h112.2c3,0,5.5-2.5,5.5-5.5S157.5,462.8,154.5,462.8z M47.7,399.9c0-11.9,9.7-21.6,21.6-21.6c11.9,0,21.6,9.7,21.6,21.6
		s-9.7,21.6-21.6,21.6C57.4,421.5,47.7,411.8,47.7,399.9z"/>
	<path d="M381,220.4c-3,0-5.5,2.5-5.5,5.5v214.6c0,3,2.5,5.5,5.5,5.5s5.5-2.5,5.5-5.5V225.9C386.5,222.9,384,220.4,381,220.4z"/>
	<path d="M386.5,191c0-3-2.5-5.5-5.5-5.5s-5.5,2.5-5.5,5.5v11.5c0,3,2.5,5.5,5.5,5.5s5.5-2.5,5.5-5.5V191z"/>
	<path d="M475,399.9c0-11.4-6-21.4-15-27.1c9-5.7,15-15.7,15-27.1c0-17.7-14.4-32.1-32.1-32.1c-5.7,0-11.3,1.5-16.2,4.4
		c-2.6,1.5-3.5,4.9-2,7.5c1.5,2.6,4.9,3.5,7.5,2c3.2-1.9,6.9-2.9,10.7-2.9c11.7,0,21.1,9.5,21.1,21.1s-9.5,21.1-21.1,21.1
		c-11.7,0-21.1-9.5-21.1-21.1c0-0.7,0-1.4,0.1-2.1c0.3-3-1.9-5.7-4.9-6c-3-0.3-5.7,1.9-6,4.9c-0.1,1.1-0.2,2.1-0.2,3.2
		c0,11.4,6,21.4,15,27.1c-9,5.7-15,15.7-15,27.1c0,15.8,11.5,29,26.6,31.7v31.3h-90.1v-54.3c0-3-2.5-5.5-5.5-5.5h-65.3
		c-3,0-5.5,2.5-5.5,5.5v31c0,3,2.5,5.5,5.5,5.5s5.5-2.5,5.5-5.5V414h54.3v48.8H240V182.1l135.5-57.3v40.9c0,3,2.5,5.5,5.5,5.5
		s5.5-2.5,5.5-5.5v-49.2c0-1.8-0.9-3.6-2.5-4.6c-1.5-1-3.5-1.2-5.2-0.5l-146.5,62c-2,0.9-3.4,2.9-3.4,5.1v35h-99.5
		c-3,0-5.5,2.5-5.5,5.5v147.3c0,3,2.5,5.5,5.5,5.5s5.5-2.5,5.5-5.5V224.5h94v238.3h-41.5c-3,0-5.5,2.5-5.5,5.5s2.5,5.5,5.5,5.5
		h280.8c3,0,5.5-2.5,5.5-5.5s-2.5-5.5-5.5-5.5h-20v-31.3C463.5,428.9,475,415.7,475,399.9z M421.7,399.9c0-11.7,9.5-21.1,21.1-21.1
		c11.7,0,21.1,9.5,21.1,21.1c0,11.7-9.5,21.1-21.1,21.1C431.2,421,421.7,411.5,421.7,399.9z"/>
	<path d="M166.5,250.5c-3,0-5.5,2.4-5.5,5.5v14.2c0,3,2.4,5.5,5.5,5.5c3,0,5.5-2.4,5.5-5.5V256C172,253,169.5,250.5,166.5,250.5z"/>
	<path d="M198.7,275.7c3,0,5.5-2.4,5.5-5.5V256c0-3-2.4-5.5-5.5-5.5s-5.5,2.4-5.5,5.5v14.2C193.2,273.2,195.7,275.7,198.7,275.7z"/>
	<path d="M166.5,291c-3,0-5.5,2.4-5.5,5.5v14.2c0,3,2.4,5.5,5.5,5.5c3,0,5.5-2.4,5.5-5.5v-14.2C172,293.4,169.5,291,166.5,291z"/>
	<path d="M193.2,310.6c0,3,2.4,5.5,5.5,5.5s5.5-2.4,5.5-5.5v-14.2c0-3-2.4-5.5-5.5-5.5s-5.5,2.4-5.5,5.5V310.6z"/>
	<path d="M166.5,331.4c-3,0-5.5,2.4-5.5,5.5v14.2c0,3,2.4,5.5,5.5,5.5c3,0,5.5-2.4,5.5-5.5v-14.2C172,333.8,169.5,331.4,166.5,331.4z"/>
	<path d="M193.2,351.1c0,3,2.4,5.5,5.5,5.5s5.5-2.4,5.5-5.5v-14.2c0-3-2.4-5.5-5.5-5.5s-5.5,2.4-5.5,5.5V351.1z"/>
	<path d="M166.5,371.8c-3,0-5.5,2.4-5.5,5.5v14.2c0,3,2.4,5.5,5.5,5.5c3,0,5.5-2.4,5.5-5.5v-14.2C172,374.2,169.5,371.8,166.5,371.8z"/>
	<path d="M193.2,391.5c0,3,2.4,5.5,5.5,5.5s5.5-2.4,5.5-5.5v-14.2c0-3-2.4-5.5-5.5-5.5s-5.5,2.4-5.5,5.5V391.5z"/>
	<path d="M166.5,412.2c-3,0-5.5,2.4-5.5,5.5v14.2c0,3,2.4,5.5,5.5,5.5c3,0,5.5-2.4,5.5-5.5v-14.2C172,414.7,169.5,412.2,166.5,412.2z"/>
	<path d="M193.2,431.9c0,3,2.4,5.5,5.5,5.5s5.5-2.4,5.5-5.5v-14.2c0-3-2.4-5.5-5.5-5.5s-5.5,2.4-5.5,5.5V431.9z"/>
	<path d="M281.9,231.4c0-3-2.4-5.5-5.5-5.5c-3,0-5.5,2.4-5.5,5.5v18c0,3,2.4,5.5,5.5,5.5c3,0,5.5-2.4,5.5-5.5V231.4z"/>
	<path d="M314.1,231.4c0-3-2.4-5.5-5.5-5.5c-3,0-5.5,2.4-5.5,5.5v18c0,3,2.4,5.5,5.5,5.5c3,0,5.5-2.4,5.5-5.5V231.4z"/>
	<path d="M281.9,282.7c0-3-2.4-5.5-5.5-5.5c-3,0-5.5,2.4-5.5,5.5v18c0,3,2.4,5.5,5.5,5.5c3,0,5.5-2.4,5.5-5.5V282.7z"/>
	<path d="M314.1,282.7c0-3-2.4-5.5-5.5-5.5c-3,0-5.5,2.4-5.5,5.5v18c0,3,2.4,5.5,5.5,5.5c3,0,5.5-2.4,5.5-5.5V282.7z"/>
	<path d="M276.5,328.5c-3,0-5.5,2.4-5.5,5.5v18c0,3,2.4,5.5,5.5,5.5c3,0,5.5-2.4,5.5-5.5v-18C281.9,330.9,279.5,328.5,276.5,328.5z"/>
	<path d="M308.7,328.5c-3,0-5.5,2.4-5.5,5.5v18c0,3,2.4,5.5,5.5,5.5c3,0,5.5-2.4,5.5-5.5v-18C314.1,330.9,311.7,328.5,308.7,328.5z"/>
	<path d="M347.3,231.4c0-3-2.4-5.5-5.5-5.5c-3,0-5.5,2.4-5.5,5.5v18c0,3,2.4,5.5,5.5,5.5c3,0,5.5-2.4,5.5-5.5V231.4z"/>
	<path d="M347.3,282.7c0-3-2.4-5.5-5.5-5.5c-3,0-5.5,2.4-5.5,5.5v18c0,3,2.4,5.5,5.5,5.5c3,0,5.5-2.4,5.5-5.5V282.7z"/>
	<path d="M341.8,328.5c-3,0-5.5,2.4-5.5,5.5v18c0,3,2.4,5.5,5.5,5.5c3,0,5.5-2.4,5.5-5.5v-18C347.3,330.9,344.8,328.5,341.8,328.5z"/>
</g>
</svg>