<svg version="1.1" id="Layer_3" xmlns="http://www.w3.org/2000/svg" xmlns:xlink="http://www.w3.org/1999/xlink" x="0px" y="0px" width="300px" height="300px" viewBox="0 0 512 512" fill="#000000" style="enable-background:new 0 0 512 512;" xml:space="preserve">
<g>
	<path d="M274.3,352.1h70.4c1.7,0,3.4-0.8,4.4-2.2s1.4-3.2,0.8-4.9c-1.3-4.3-13.6-42.5-36.1-46.7c-10.3-1.9-20.5,3.4-30.2,15.8
		c-1.9,2.4-1.5,5.8,0.9,7.7c2.4,1.9,5.8,1.5,7.7-0.9c7-8.9,13.5-12.9,19.5-11.8c10.9,2,20.3,20.2,25.1,32h-62.6
		c-3,0-5.5,2.5-5.5,5.5S271.2,352.1,274.3,352.1z"/>
	<path d="M230.8,352.1h13.2c3,0,5.5-2.5,5.5-5.5s-2.5-5.5-5.5-5.5h-13.2c-3,0-5.5,2.5-5.5,5.5S227.8,352.1,230.8,352.1z"/>
	<path d="M495.7,341.1H379.1c2.8-7.3,7.5-19,13.5-30.7c11.6-22.6,23.1-35.7,31.7-35.9c0.1,0,0.1,0,0.2,0c8.4,0,15.3,13.2,19.5,24.3
		c1.1,2.8,4.3,4.3,7.1,3.2c2.8-1.1,4.3-4.3,3.2-7.1c-8.1-21.1-17.8-31.3-29.7-31.3c-0.1,0-0.3,0-0.4,0c-13.5,0.3-27,14-41.3,42
		c-2.3,4.5-4.4,9-6.4,13.3l-0.9-82c9.8-2.4,17.2-11.3,17.2-21.8v-27.3c0-3-2.5-5.5-5.5-5.5s-5.5,2.5-5.5,5.5V215
		c0,6.3-5.1,11.4-11.4,11.4H369c-6.3,0-11.4-5.1-11.4-11.4v-61c0-6.3,5.1-11.4,11.4-11.4h1.2c6.3,0,11.4,5.1,11.4,11.4v10.6
		c0,3,2.5,5.5,5.5,5.5s5.5-2.5,5.5-5.5V154c0-11-7.9-20.1-18.4-22.1l-0.2-19c0-3-2.5-5.4-5.5-5.4c0,0,0,0-0.1,0
		c-3,0-5.5,2.5-5.4,5.6l0.2,19.2c-9.6,2.5-16.7,11.3-16.7,21.7v61c0,10.8,7.7,19.9,17.9,22l1.1,98.2l-31.3-77c2.8-2,5-4.6,6.5-7.6
		c2.4-4.7,2.6-10,0.7-14.6l-17.7-42.7c-1.9-4.6-5.9-8.2-10.9-9.8c-3-1-6.3-1.3-9.5-0.8l-7.2-17.6c-1.1-2.8-4.3-4.2-7.2-3
		c-2.8,1.1-4.2,4.4-3,7.2l7.1,17.4c-7.8,5.2-11.3,14.6-7.9,22.7l7.9,19.1c1.2,2.8,4.4,4.1,7.2,3c2.8-1.2,4.1-4.4,3-7.2l-7.9-19.1
		c-1.5-3.7,1.2-8.4,5.9-10.4l0.9-0.4c2.4-1,5.1-1.1,7.3-0.4c2,0.7,3.5,1.9,4.2,3.6l17.7,42.7c0.7,1.7,0.5,3.6-0.4,5.5
		c-1.1,2.1-3.1,3.9-5.5,4.9l-0.9,0.4c-2.4,1-5.1,1.1-7.3,0.4c-2-0.7-3.5-1.9-4.2-3.6l-2.1-5.1c-1.2-2.8-4.4-4.1-7.2-3
		c-2.8,1.2-4.1,4.4-3,7.2l2.1,5.1c1.9,4.6,5.9,8.2,10.9,9.8c2.1,0.7,4.3,1,6.5,1c1.3,0,2.5-0.1,3.8-0.4l35.1,86.2
		c0.8,2.1,2.9,3.4,5.1,3.4h131.4c3,0,5.5-2.5,5.5-5.5S498.7,341.1,495.7,341.1z"/>
	<path d="M438.1,360.4c-2.6,1.6-3.3,5-1.7,7.6c3.6,5.6,5.5,12,5.5,18.7v0.5c0,19.1-15.4,34.6-34.3,34.6h-28.9c-3,0-5.5,2.5-5.5,5.5
		s2.5,5.5,5.5,5.5c9.1,0,16.4,7.4,16.4,16.5c0,9.1-7.4,16.4-16.4,16.4h-40.8c-3,0-5.5,2.5-5.5,5.5s2.5,5.5,5.5,5.5h40.8
		c15.1,0,27.4-12.3,27.4-27.5c0-6.2-2-11.8-5.5-16.4h7c25,0,45.3-20.4,45.3-45.6v-0.5c0-8.8-2.5-17.3-7.2-24.6
		C444,359.5,440.6,358.7,438.1,360.4z"/>
	<path d="M309.5,465.7h-3.9c-9.1,0-16.4-7.4-16.4-16.5c0-9.1,7.4-16.4,16.4-16.4c3,0,5.5-2.5,5.5-5.5s-2.5-5.5-5.5-5.5h-92.3
		c-13.1,0-23.8-10.7-23.8-23.8v-1c0-3-2.5-5.5-5.5-5.5h-17.2c-3,0-5.5,2.5-5.5,5.5s2.5,5.5,5.5,5.5h12c2.2,17.1,16.9,30.3,34.5,30.3
		h70.4c-3.4,4.6-5.5,10.3-5.5,16.5c0,15.1,12.3,27.4,27.4,27.4h3.9c3,0,5.5-2.5,5.5-5.5S312.5,465.7,309.5,465.7z"/>
	<path d="M139.7,391.4h-25.2c-12.1,0-21.9-8.8-21.9-19.7c0-9.2,7.3-17.3,17.4-19.2c0.5-0.1,0.9-0.2,1.3-0.4h66c0,0,0,0,0,0
		c0,0,0,0,0,0H207c3,0,5.5-2.5,5.5-5.5s-2.5-5.5-5.5-5.5h-24.9c-1.4-16.8,12.4-26,13.1-26.4c2.6-1.6,3.3-5,1.7-7.6
		c-1.6-2.6-5-3.3-7.6-1.7c-0.6,0.4-9.4,6.1-14.6,16.9c-10.7-22-33.1-24.4-33.4-24.4c-3-0.3-5.7,1.9-6,5c-0.3,3,1.9,5.7,4.9,6
		c1.1,0.1,24.6,2.9,28.5,32.2H16.3c-3,0-5.5,2.5-5.5,5.5s2.5,5.5,5.5,5.5h73c-4.8,5.4-7.7,12.3-7.7,19.7c0,16.9,14.7,30.7,32.9,30.7
		h25.2c3,0,5.5-2.5,5.5-5.5S142.7,391.4,139.7,391.4z"/>
	<path d="M140.8,148.1c21.8,0,39.6-17.8,39.6-39.6c0-21.8-17.8-39.6-39.6-39.6c-21.8,0-39.6,17.8-39.6,39.6
		C101.2,130.4,119,148.1,140.8,148.1z M140.8,79.9c15.8,0,28.6,12.8,28.6,28.6c0,15.8-12.8,28.6-28.6,28.6
		c-15.8,0-28.6-12.8-28.6-28.6C112.2,92.7,125,79.9,140.8,79.9z"/>
</g>
</svg>
